<svg version="1.2" xmlns="http://www.w3.org/2000/svg" viewBox="0 0 61 61" width="512" height="512">
	<defs>
		<clipPath clipPathUnits="userSpaceOnUse" id="cp1">
			<path d="m28.69 3.46c-15.85 0-28.69 12.84-28.69 28.68 0 15.85 12.84 28.69 28.69 28.69 15.84 0 28.68-12.84 28.68-28.69 0-15.84-12.84-28.68-28.68-28.68z"/>
		</clipPath>
		<clipPath clipPathUnits="userSpaceOnUse" id="cp2">
			<path d="m32.06 0.08c-15.84 0-28.69 12.84-28.69 28.69 0 15.84 12.85 28.69 28.69 28.69 15.85 0 28.69-12.85 28.69-28.69 0-15.85-12.84-28.69-28.69-28.69z"/>
		</clipPath>
	</defs>
	<style>
		.s0 { fill: #000000 } 
		.s1 { fill: none;stroke: #000000;stroke-width: 1.5 } 
		.s2 { fill: #ffd400 } 
		.s3 { fill: #ffffff } 
		.s4 { fill: none;stroke: #000000;stroke-linecap: round;stroke-width: 3.5 } 
		.s5 { fill: none;stroke: #000000;stroke-linecap: round;stroke-width: 2.6 } 
	</style>
	<g id="Page 1">
		<path id="Path 3" fill-rule="evenodd" class="s0" d="m28.69 3.46c-15.85 0-28.69 12.84-28.69 28.68 0 15.85 12.84 28.69 28.69 28.69 15.84 0 28.68-12.84 28.68-28.69 0-15.84-12.84-28.68-28.68-28.68z"/>
		<g id="Mask" clip-path="url(#cp1)">
			<path id="Path 5" fill-rule="evenodd" class="s1" d="m28.69 3.46c-15.85 0-28.69 12.84-28.69 28.68 0 15.85 12.84 28.69 28.69 28.69 15.84 0 28.68-12.84 28.68-28.69 0-15.84-12.84-28.68-28.68-28.68z"/>
		</g>
		<g id="Mask" clip-path="url(#cp2)">
			<path id="Path 8" fill-rule="evenodd" class="s2" d="m3.37 0.08h57.38v57.38h-57.38z"/>
			<path id="Path 9" fill-rule="evenodd" class="s1" d="m32.06 0.08c-15.84 0-28.69 12.84-28.69 28.69 0 15.84 12.85 28.69 28.69 28.69 15.85 0 28.69-12.85 28.69-28.69 0-15.85-12.84-28.69-28.69-28.69z"/>
		</g>
		<path id="Path 12" fill-rule="evenodd" class="s3" d="m28.34 27.34q0.06 0.6 0.01 1.21-0.06 0.6-0.23 1.18-0.17 0.59-0.46 1.12-0.28 0.54-0.66 1.01-0.38 0.47-0.85 0.86-0.46 0.39-1 0.68-0.53 0.29-1.11 0.47-0.58 0.18-1.18 0.24-0.6 0.06-1.21 0.01-0.6-0.06-1.18-0.23-0.59-0.17-1.12-0.46-0.54-0.28-1.01-0.66-0.47-0.38-0.86-0.85-0.39-0.46-0.68-1-0.29-0.53-0.47-1.11-0.18-0.58-0.24-1.18-0.06-0.6-0.01-1.21 0.06-0.6 0.23-1.18 0.17-0.59 0.46-1.12 0.28-0.54 0.66-1.01 0.38-0.47 0.85-0.86 0.46-0.39 1-0.68 0.53-0.29 1.11-0.47 0.58-0.18 1.18-0.24 0.6-0.06 1.21-0.01 0.6 0.06 1.18 0.23 0.59 0.17 1.12 0.46 0.54 0.28 1.01 0.66 0.47 0.38 0.86 0.85 0.39 0.46 0.68 1 0.29 0.53 0.47 1.11 0.18 0.58 0.24 1.18z"/>
		<path id="Path 13" fill-rule="evenodd" class="s3" d="m47.58 25.32q0.07 0.6 0.01 1.21-0.05 0.6-0.23 1.18-0.17 0.58-0.45 1.12-0.28 0.54-0.66 1.01-0.39 0.47-0.85 0.86-0.47 0.38-1 0.67-0.53 0.29-1.11 0.47-0.58 0.18-1.19 0.25-0.6 0.06-1.2 0-0.61-0.05-1.19-0.22-0.58-0.18-1.12-0.46-0.53-0.28-1-0.66-0.48-0.38-0.86-0.85-0.39-0.47-0.68-1-0.29-0.53-0.47-1.11-0.18-0.58-0.24-1.18-0.07-0.61-0.01-1.21 0.05-0.61 0.23-1.19 0.17-0.58 0.45-1.11 0.28-0.54 0.67-1.01 0.38-0.47 0.84-0.86 0.47-0.39 1-0.68 0.54-0.29 1.12-0.47 0.57-0.18 1.18-0.24 0.6-0.06 1.2-0.01 0.61 0.06 1.19 0.23 0.58 0.17 1.12 0.45 0.53 0.29 1.01 0.67 0.47 0.38 0.86 0.85 0.38 0.46 0.67 0.99 0.29 0.54 0.47 1.12 0.18 0.58 0.24 1.18z"/>
		<path id="Path 14" fill-rule="evenodd" class="s0" d="m26.2 28.89q0.06 0.56-0.1 1.1-0.16 0.53-0.51 0.97-0.35 0.43-0.84 0.7-0.5 0.27-1.05 0.33-0.56 0.05-1.1-0.1-0.53-0.16-0.97-0.52-0.43-0.35-0.7-0.84-0.27-0.49-0.33-1.05-0.06-0.56 0.1-1.09 0.16-0.54 0.52-0.97 0.35-0.44 0.84-0.71 0.49-0.26 1.05-0.32 0.56-0.06 1.09 0.1 0.54 0.16 0.97 0.51 0.44 0.35 0.71 0.84 0.26 0.5 0.32 1.05z"/>
		<path id="Path 15" fill-rule="evenodd" class="s0" d="m45.45 26.87q0.06 0.56-0.1 1.09-0.16 0.54-0.51 0.98-0.36 0.43-0.85 0.7-0.49 0.27-1.05 0.32-0.55 0.06-1.09-0.1-0.54-0.16-0.97-0.51-0.44-0.35-0.7-0.84-0.27-0.49-0.33-1.05-0.06-0.56 0.1-1.1 0.16-0.53 0.51-0.97 0.35-0.43 0.85-0.7 0.49-0.27 1.04-0.33 0.56-0.05 1.1 0.11 0.54 0.15 0.97 0.51 0.44 0.35 0.7 0.84 0.27 0.49 0.33 1.05z"/>
		<path id="Path 16" fill-rule="evenodd" class="s4" d="m15.36 21.63l13.12-1.38"/>
		<path id="Path 17" fill-rule="evenodd" class="s4" d="m33.73 19.7l13.12-1.38"/>
		<path id="Path 18" fill-rule="evenodd" class="s5" d="m30.37 39.95c2.13 1.73 5.28 1.39 7-0.73"/>
	</g>
</svg>
